<?xml version="1.0" standalone="no"?><!DOCTYPE svg PUBLIC "-//W3C//DTD SVG 1.1//EN" "http://www.w3.org/Graphics/SVG/1.1/DTD/svg11.dtd"><svg t="1590576364173" class="icon" viewBox="0 0 1024 1024" version="1.1" xmlns="http://www.w3.org/2000/svg" p-id="2487" xmlns:xlink="http://www.w3.org/1999/xlink" width="128" height="128"><defs><style type="text/css"></style></defs><path d="M841.2 66.4H182.6c-45.5 0-82.3 36.9-82.3 82.3v728.5c0 45.5 36.9 82.3 82.3 82.3h658.6c45.5 0 82.3-36.9 82.3-82.3V148.7c0-45.4-36.9-82.3-82.3-82.3z m-528 234.4c14.1-21.5 42.6-27.3 63.6-12.9L491.2 366l102.1-155.5c14.1-21.5 42.6-27.3 63.6-12.9 21.1 14.4 26.7 43.5 12.6 64.9L541.9 457c-14.1 21.5-42.6 27.3-63.6 12.9L325.8 365.7c-21.1-14.4-26.7-43.4-12.6-64.9zM800 807.3H223.8V725H800v82.3z m0-164.6H223.8v-82.3H800v82.3z" p-id="2488" fill="#f4ea2a"></path></svg>