<?xml version="1.0" standalone="no"?><!DOCTYPE svg PUBLIC "-//W3C//DTD SVG 1.1//EN" "http://www.w3.org/Graphics/SVG/1.1/DTD/svg11.dtd"><svg t="1590576546969" class="icon" viewBox="0 0 1365 1024" version="1.1" xmlns="http://www.w3.org/2000/svg" p-id="4380" xmlns:xlink="http://www.w3.org/1999/xlink" width="170.625" height="128"><defs><style type="text/css"></style></defs><path d="M633.173333 16.981333a85.333333 85.333333 0 0 1 118.869334 21.162667l594.005333 851.712a85.333333 85.333333 0 0 1-69.973333 134.144H89.258667a85.333333 85.333333 0 0 1-69.973334-134.058667L611.925333 38.229333a85.333333 85.333333 0 0 1 21.248-21.248zM661.333333 768a64 64 0 1 0 0 128 64 64 0 0 0 0-128z m0-512a64 64 0 0 0-64 64v298.666667a64 64 0 0 0 128 0v-298.666667A64 64 0 0 0 661.333333 256z" fill="#f4ea2a" p-id="4381"></path></svg>