<?xml version="1.0" standalone="no"?><!DOCTYPE svg PUBLIC "-//W3C//DTD SVG 1.1//EN" "http://www.w3.org/Graphics/SVG/1.1/DTD/svg11.dtd"><svg t="1590576713819" class="icon" viewBox="0 0 1024 1024" version="1.1" xmlns="http://www.w3.org/2000/svg" p-id="7520" xmlns:xlink="http://www.w3.org/1999/xlink" width="128" height="128"><defs><style type="text/css"></style></defs><path d="M183.794872 735.179487V223.179487a105.025641 105.025641 0 0 1 105.025641-105.025641h533.267692C884.919795 118.153846 918.974359 159.428923 918.974359 229.966769v124.04841h-94.155487V800.820513A105.051897 105.051897 0 0 1 735.179487 904.717128L735.179487 905.846154H210.051282a105.025641 105.025641 0 0 1-105.025641-105.025641v-65.641026h78.769231z m682.666666-433.677128v-71.53559c0-21.595897-3.203282-36.365128-10.266256-45.751795-22.449231 5.106872-32.295385 25.560615-31.37641 70.196513v47.090872H866.461538zM325.737026 387.282051H680.041026a26.25641 26.25641 0 1 0 0-52.51282H325.737026a26.25641 26.25641 0 1 0 0 52.51282z m0.131282 144.410257h179.265641a26.25641 26.25641 0 1 0 0-52.512821H325.868308a26.25641 26.25641 0 1 0 0 52.512821zM157.538462 787.692308v13.128205a52.512821 52.512821 0 0 0 52.51282 52.51282h440.385641c-8.927179-17.77559-14.493538-39.804718-16.67282-65.641025H157.538462z" fill="#f4ea2a" p-id="7521"></path></svg>