<?xml version="1.0" standalone="no"?><!DOCTYPE svg PUBLIC "-//W3C//DTD SVG 1.1//EN" "http://www.w3.org/Graphics/SVG/1.1/DTD/svg11.dtd"><svg t="1590576625156" class="icon" viewBox="0 0 1024 1024" version="1.1" xmlns="http://www.w3.org/2000/svg" p-id="5405" xmlns:xlink="http://www.w3.org/1999/xlink" width="128" height="128"><defs><style type="text/css"></style></defs><path d="M877.714286 219.428571h-109.714286V128C768 76.8 731.428571 36.571429 683.885714 36.571429H340.114286C292.571429 36.571429 256 76.8 256 128V219.428571H146.285714C106.057143 219.428571 73.142857 252.342857 73.142857 292.571429v585.142857c0 40.228571 32.914286 73.142857 73.142857 73.142857h73.142857c0 40.228571 32.914286 73.142857 73.142858 73.142857s73.142857-32.914286 73.142857-73.142857h292.571428c0 40.228571 32.914286 73.142857 73.142857 73.142857s73.142857-32.914286 73.142858-73.142857h73.142857c40.228571 0 73.142857-32.914286 73.142857-73.142857V292.571429c0-40.228571-32.914286-73.142857-73.142857-73.142858zM384 157.257143h256V219.428571h-256V157.257143zM402.285714 676.571429c0 29.257143-25.6 54.857143-54.857143 54.857142S292.571429 705.828571 292.571429 676.571429v-186.514286c0-29.257143 25.6-51.2 54.857142-51.2h3.657143c25.6 0 51.2 21.942857 51.2 51.2v186.514286z m329.142857 0c0 29.257143-25.6 54.857143-54.857142 54.857142h-3.657143c-29.257143 0-54.857143-25.6-54.857143-54.857142v-186.514286c0-29.257143 25.6-54.857143 54.857143-54.857143h3.657143c29.257143 0 54.857143 25.6 54.857142 54.857143v186.514286z" fill="#f4ea2a" p-id="5406"></path></svg>